<?xml version="1.0" encoding="UTF-8"?>
<svg version="1.1" xmlns="http://www.w3.org/2000/svg" width="200" height="200">
<path d="M0 0 C66 0 132 0 200 0 C200 66 200 132 200 200 C134 200 68 200 0 200 C0 134 0 68 0 0 Z " fill="#FEFEFE" transform="translate(0,0)"/>
<path d="M0 0 C5.33333333 0 10.66666667 0 16 0 C17.546875 -0.061875 17.546875 -0.061875 19.125 -0.125 C22 0 22 0 24 2 C23.9765625 4.6015625 23.9765625 4.6015625 23.625 7.625 C23.45871094 9.12933594 23.45871094 9.12933594 23.2890625 10.6640625 C23.14597656 11.82035156 23.14597656 11.82035156 23 13 C23.66 13 24.32 13 25 13 C24.67 14.65 24.34 16.3 24 18 C21.625 18.125 21.625 18.125 19 18 C18.34 17.34 17.68 16.68 17 16 C17.0234375 13.3984375 17.0234375 13.3984375 17.375 10.375 C17.54128906 8.87066406 17.54128906 8.87066406 17.7109375 7.3359375 C17.80632812 6.56507812 17.90171875 5.79421875 18 5 C15.97003414 5.59621256 15.97003414 5.59621256 14 7 C13.08043198 9.63571568 13.08043198 9.63571568 12.75 12.625 C12.60046875 13.62789062 12.4509375 14.63078125 12.296875 15.6640625 C12.19890625 16.43492187 12.1009375 17.20578125 12 18 C10.35 18 8.7 18 7 18 C7.33 13.71 7.66 9.42 8 5 C7.01 5.33 6.02 5.66 5 6 C4.86722656 6.78246094 4.73445312 7.56492187 4.59765625 8.37109375 C4.42105469 9.38300781 4.24445313 10.39492187 4.0625 11.4375 C3.88847656 12.44683594 3.71445313 13.45617187 3.53515625 14.49609375 C3 17 3 17 2 18 C0.33382885 18.04063832 -1.33388095 18.042721 -3 18 C-2.22095672 5.33029613 -2.22095672 5.33029613 0 0 Z " fill="#3974B9" transform="translate(165,115)"/>
<path d="M0 0 C1.46566406 -0.03867188 1.46566406 -0.03867188 2.9609375 -0.078125 C5.625 0.25 5.625 0.25 7.48046875 1.4609375 C9.44681759 4.5346159 8.6753792 7.313458 8.19140625 10.79296875 C7.39313563 14.25581166 6.46634602 16.08160436 3.625 18.25 C-0.125 18.0625 -0.125 18.0625 -3.375 17.25 C-3.705 20.55 -4.035 23.85 -4.375 27.25 C-6.025 27.25 -7.675 27.25 -9.375 27.25 C-7.68776686 0.12106719 -7.68776686 0.12106719 0 0 Z " fill="#3974B9" transform="translate(20.375,114.75)"/>
<path d="M0 0 C0.99 0.66 1.98 1.32 3 2 C3.40843923 4.71203652 3.13336867 7.2437142 3 10 C-0.3 10 -3.6 10 -7 10 C-7 10.99 -7 11.98 -7 13 C-6.443125 12.67 -5.88625 12.34 -5.3125 12 C-2.69715478 10.8690399 -0.8193354 10.84337026 2 11 C1.64393309 13.58148508 1.16671807 14.82045747 -0.625 16.75 C-3.92530867 18.48700456 -6.32614438 18.40078425 -10 18 C-11.9375 16.9375 -11.9375 16.9375 -13 15 C-13.58943806 9.79329714 -12.77917412 6.42609211 -10 2 C-6.31282562 -0.45811625 -4.35654296 -0.31118164 0 0 Z " fill="#447CBD" transform="translate(60,115)"/>
<path d="M0 0 C0.99 0.66 1.98 1.32 3 2 C3.40843923 4.71203652 3.13336867 7.2437142 3 10 C-0.3 10 -3.6 10 -7 10 C-7 10.99 -7 11.98 -7 13 C-6.443125 12.67 -5.88625 12.34 -5.3125 12 C-2.69715478 10.8690399 -0.8193354 10.84337026 2 11 C0.75023244 14.65316671 0.32901247 15.78065836 -3 18 C-9.21492659 18.55490416 -9.21492659 18.55490416 -11.71875 16.78515625 C-13.89245335 13.75655127 -13.11965528 10.99568313 -12.6328125 7.453125 C-10.87618793 0.64349395 -6.50009145 -0.84260445 0 0 Z " fill="#437BBD" transform="translate(123,115)"/>
<path d="M0 0 C0.99 0.66 1.98 1.32 3 2 C3 3.32 3 4.64 3 6 C-0.3 5.67 -3.6 5.34 -7 5 C-7 5.66 -7 6.32 -7 7 C-4.36 7.66 -1.72 8.32 1 9 C1.48 14.4 1.48 14.4 -0.5 16.875 C-4.25284424 18.56377991 -6.88668458 18.39174433 -11 18 C-13 16.6875 -13 16.6875 -14 15 C-14 14.01 -14 13.02 -14 12 C-10.7 12.33 -7.4 12.66 -4 13 C-4 12.34 -4 11.68 -4 11 C-4.928125 11.061875 -5.85625 11.12375 -6.8125 11.1875 C-10 11 -10 11 -11.9375 9.8125 C-13 8 -13 8 -12.9375 5.5 C-10.56922834 -0.8153911 -5.9329493 -0.47086899 0 0 Z " fill="#3C76BA" transform="translate(106,115)"/>
<path d="M0 0 C1.9375 1.1875 1.9375 1.1875 3 3 C3.25 5.625 3.25 5.625 3 8 C2 9 2 9 -0.5625 9.0625 C-1.366875 9.041875 -2.17125 9.02125 -3 9 C-3 7.68 -3 6.36 -3 5 C-3.99 5.33 -4.98 5.66 -6 6 C-6.33 8.31 -6.66 10.62 -7 13 C-4.36 12.67 -1.72 12.34 1 12 C0.6875 13.875 0.6875 13.875 0 16 C-4.06849409 18.71232939 -6.16476784 18.30699887 -11 18 C-13.3941161 15.6058839 -13.29598923 14.96213689 -13.3125 11.6875 C-13.22211539 7.67184096 -12.60457451 5.18336884 -10 2 C-6.30513897 -0.46324069 -4.36706908 -0.38991688 0 0 Z " fill="#3A75BA" transform="translate(78,115)"/>
<path d="M0 0 C2 2 2 2 2.125 5.625 C2.08375 6.73875 2.0425 7.8525 2 9 C0.35 9 -1.3 9 -3 9 C-3 7.68 -3 6.36 -3 5 C-4.98 5.99 -4.98 5.99 -7 7 C-7 8.65 -7 10.3 -7 12 C-4.36 12 -1.72 12 1 12 C0.6875 13.875 0.6875 13.875 0 16 C-4.06849409 18.71232939 -6.16476784 18.30699887 -11 18 C-13.56588452 15.43411548 -13.3554254 14.25533131 -13.4375 10.6875 C-13.34902758 6.721854 -13.1589396 5.25330999 -11 1.8125 C-6.90996287 -0.6585641 -4.72409784 -0.54210959 0 0 Z " fill="#3471B8" transform="translate(158,115)"/>
<path d="M0 0 C2.33333333 0 4.66666667 0 7 0 C7.845625 -0.020625 8.69125 -0.04125 9.5625 -0.0625 C12 0 12 0 13 1 C13.125 4.5 13.125 4.5 13 8 C12 9 12 9 9.4375 9.0625 C8.633125 9.041875 7.82875 9.02125 7 9 C7 8.01 7 7.02 7 6 C6.01 6 5.02 6 4 6 C4.020625 7.051875 4.04125 8.10375 4.0625 9.1875 C4.01103198 12.32704904 3.73482813 14.96883396 3 18 C1.35 18 -0.3 18 -2 18 C-1.8590651 15.56212615 -1.71245458 13.12482147 -1.5625 10.6875 C-1.52318359 9.99720703 -1.48386719 9.30691406 -1.44335938 8.59570312 C-1.25072585 5.52838465 -0.97677283 2.93031848 0 0 Z " fill="#477EBE" transform="translate(33,115)"/>
<path d="M0 0 C2.33333333 0 4.66666667 0 7 0 C7.845625 -0.020625 8.69125 -0.04125 9.5625 -0.0625 C12 0 12 0 13 1 C13.04092937 3.33297433 13.04241723 5.66705225 13 8 C11.35 8.33 9.7 8.66 8 9 C8 7.68 8 6.36 8 5 C7.01 5.495 7.01 5.495 6 6 C5.08514427 8.80478195 5.08514427 8.80478195 4.375 12.0625 C3.98441406 13.71958984 3.98441406 13.71958984 3.5859375 15.41015625 C3.39257812 16.26480469 3.19921875 17.11945313 3 18 C1.35 18 -0.3 18 -2 18 C-2.27560214 11.79895188 -1.22899346 6.06815522 0 0 Z " fill="#4179BC" transform="translate(130,115)"/>
<path d="M0 0 C1.65 0 3.3 0 5 0 C4.67 4.29 4.34 8.58 4 13 C4.66 13 5.32 13 6 13 C6 14.32 6 15.64 6 17 C3.6739143 17.38063221 1.33944736 17.71269945 -1 18 C-2 17 -2 17 -2.1328125 15.1796875 C-2.08843537 2.08843537 -2.08843537 2.08843537 0 0 Z " fill="#437BBD" transform="translate(85,115)"/>
<path d="M0 0 C3.96 0 7.92 0 12 0 C12 0.33 12 0.66 12 1 C11.05125 1.20625 10.1025 1.4125 9.125 1.625 C5.80675678 2.6880478 5.80675678 2.6880478 4.6875 5.625 C3.91597517 9.41248553 3.45531297 13.1623621 3 17 C2 18 2 18 -0.5625 18.0625 C-1.366875 18.041875 -2.17125 18.02125 -3 18 C-2.22095672 5.33029613 -2.22095672 5.33029613 0 0 Z " fill="#457CBD" transform="translate(165,115)"/>
<path d="M0 0 C1.79244141 0.01740234 1.79244141 0.01740234 3.62109375 0.03515625 C5.41740234 0.04869141 5.41740234 0.04869141 7.25 0.0625 C8.17683594 0.07410156 9.10367188 0.08570312 10.05859375 0.09765625 C10.05859375 1.41765625 10.05859375 2.73765625 10.05859375 4.09765625 C6.75859375 4.09765625 3.45859375 4.09765625 0.05859375 4.09765625 C0.05859375 7.39765625 0.05859375 10.69765625 0.05859375 14.09765625 C-1.26140625 14.09765625 -2.58140625 14.09765625 -3.94140625 14.09765625 C-3.96826563 11.95188988 -3.98773713 9.8060298 -4.00390625 7.66015625 C-4.01550781 6.46519531 -4.02710937 5.27023438 -4.0390625 4.0390625 C-3.90927257 0.12978993 -3.90927257 0.12978993 0 0 Z " fill="#98CFEA" transform="translate(109.94140625,78.90234375)"/>
<path d="M0 0 C2.14576637 -0.02685938 4.29162645 -0.04633088 6.4375 -0.0625 C7.63246094 -0.07410156 8.82742187 -0.08570312 10.05859375 -0.09765625 C13 0 13 0 14 1 C14.07271741 3.35313555 14.08370868 5.70833668 14.0625 8.0625 C14.05347656 9.35285156 14.04445313 10.64320312 14.03515625 11.97265625 C14.02355469 12.97167969 14.01195313 13.97070312 14 15 C13.01 15 12.02 15 11 15 C11 11.37 11 7.74 11 4 C7.37 4 3.74 4 0 4 C0 2.68 0 1.36 0 0 Z " fill="#3572B8" transform="translate(86,79)"/>
<path d="M0 0 C0.99 0.33 1.98 0.66 3 1 C3 4.63 3 8.26 3 12 C6.63 12 10.26 12 14 12 C14 12.99 14 13.98 14 15 C11.68756208 15.02685412 9.3750373 15.04632841 7.0625 15.0625 C5.77472656 15.07410156 4.48695312 15.08570312 3.16015625 15.09765625 C0 15 0 15 -1 14 C-1.0989294 11.83519203 -1.129711 9.66706215 -1.125 7.5 C-1.12757812 6.3140625 -1.13015625 5.128125 -1.1328125 3.90625 C-1 1 -1 1 0 0 Z " fill="#4D82C0" transform="translate(107,58)"/>
<path d="M0 0 C0.99 0.33 1.98 0.66 3 1 C3.02685938 3.14576637 3.04633088 5.29162645 3.0625 7.4375 C3.07410156 8.63246094 3.08570312 9.82742187 3.09765625 11.05859375 C3 14 3 14 2 15 C-0.18639453 15.07258946 -2.37500389 15.08373783 -4.5625 15.0625 C-6.35880859 15.04896484 -6.35880859 15.04896484 -8.19140625 15.03515625 C-9.11824219 15.02355469 -10.04507813 15.01195313 -11 15 C-11.33 14.01 -11.66 13.02 -12 12 C-8.04 12 -4.08 12 0 12 C0 8.04 0 4.08 0 0 Z " fill="#8AC8E7" transform="translate(97,58)"/>
<path d="M0 0 C2.35448165 2.55068845 2.98327924 3.71017358 3.1875 7.25 C3.125625 8.1575 3.06375 9.065 3 10 C2.34 9.01 1.68 8.02 1 7 C0.01 8.485 0.01 8.485 -1 10 C-3.7427508 10.47114738 -6.19558897 10.17805784 -9 10 C-10 9 -10 9 -10.1875 6.5625 C-10 4 -10 4 -8 2 C-7.01 2 -6.02 2 -5 2 C-5 3.32 -5 4.64 -5 6 C-3.35 6 -1.7 6 0 6 C0 4.02 0 2.04 0 0 Z " fill="#D8E3F1" transform="translate(160,118)"/>
<path d="M0 0 C0.99 0 1.98 0 3 0 C3 1.32 3 2.64 3 4 C7.96911366 2.87302957 7.96911366 2.87302957 12 0 C11.67 3.63 11.34 7.26 11 11 C10.67 11 10.34 11 10 11 C9.67 9.02 9.34 7.04 9 5 C8.34 6.32 7.68 7.64 7 9 C7 8.34 7 7.68 7 7 C4.36 7.33 1.72 7.66 -1 8 C-1.04241723 5.66705225 -1.04092937 3.33297433 -1 1 C-0.67 0.67 -0.34 0.34 0 0 Z " fill="#DEE8F3" transform="translate(72,120)"/>
<path d="M0 0 C0.66 0.33 1.32 0.66 2 1 C1.57730231 4.41943506 1.08008783 7.72174346 0 11 C-2.625 12.625 -2.625 12.625 -5 13 C-4.34 10.36 -3.68 7.72 -3 5 C-5.64 4.34 -8.28 3.68 -11 3 C-11 2.34 -11 1.68 -11 1 C-10.28972656 1.01160156 -9.57945313 1.02320312 -8.84765625 1.03515625 C-7.92855469 1.04417969 -7.00945312 1.05320312 -6.0625 1.0625 C-4.68771484 1.07990234 -4.68771484 1.07990234 -3.28515625 1.09765625 C-1.03406673 1.25949049 -1.03406673 1.25949049 0 0 Z " fill="#DFE8F3" transform="translate(110,119)"/>
<path d="M0 0 C2.07384637 2.28176413 2.98397191 3.44323483 3.07421875 6.578125 C2.88279297 7.90070313 2.88279297 7.90070313 2.6875 9.25 C2.56761719 10.14203125 2.44773438 11.0340625 2.32421875 11.953125 C2.21722656 12.62859375 2.11023438 13.3040625 2 14 C1.34 12.68 0.68 11.36 0 10 C-0.99 10.495 -0.99 10.495 -2 11 C-1.67 9.68 -1.34 8.36 -1 7 C-3.97 7.66 -6.94 8.32 -10 9 C-10 8.01 -10 7.02 -10 6 C-6.7 6 -3.4 6 0 6 C0 4.02 0 2.04 0 0 Z " fill="#E6EDF6" transform="translate(126,119)"/>
<path d="M0 0 C0.78375 0.04125 1.5675 0.0825 2.375 0.125 C2.375 2.435 2.375 4.745 2.375 7.125 C0.725 7.125 -0.925 7.125 -2.625 7.125 C-3.285 5.475 -3.945 3.825 -4.625 2.125 C-2.625 0.125 -2.625 0.125 0 0 Z " fill="#3470B7" transform="translate(43.625,115.875)"/>
<path d="M0 0 C1.98 0 3.96 0 6 0 C6.042721 1.66611905 6.04063832 3.33382885 6 5 C5 6 5 6 2.4375 6.0625 C1.2309375 6.0315625 1.2309375 6.0315625 0 6 C0 4.02 0 2.04 0 0 Z " fill="#4079BC" transform="translate(86,106)"/>
<path d="M0 0 C4.29 0 8.58 0 13 0 C13 0.33 13 0.66 13 1 C9.37 1.33 5.74 1.66 2 2 C4.97 2.33 7.94 2.66 11 3 C11 3.33 11 3.66 11 4 C7.37 4 3.74 4 0 4 C0 2.68 0 1.36 0 0 Z " fill="#7EA4D1" transform="translate(86,79)"/>
<path d="M0 0 C0.99 0 1.98 0 3 0 C3 1.98 3 3.96 3 6 C1.02 6.99 1.02 6.99 -1 8 C-1.04241723 5.66705225 -1.04092937 3.33297433 -1 1 C-0.67 0.67 -0.34 0.34 0 0 Z " fill="#EBF1F8" transform="translate(20,120)"/>
<path d="M0 0 C0 0.33 0 0.66 0 1 C-1.60875 1.12375 -1.60875 1.12375 -3.25 1.25 C-7.34143104 2.06828621 -8.46485526 2.80759551 -11 6 C-11.66 6.99 -12.32 7.98 -13 9 C-12.52238806 3.62686567 -12.52238806 3.62686567 -10.4375 1.125 C-6.85660328 -0.52772156 -3.92364165 -0.19618208 0 0 Z " fill="#5487C3" transform="translate(158,115)"/>
</svg>
